<?xml version="1.0" standalone="no"?>
<!DOCTYPE svg PUBLIC "-//W3C//DTD SVG 20010904//EN"
 "http://www.w3.org/TR/2001/REC-SVG-20010904/DTD/svg10.dtd">
<svg version="1.0" xmlns="http://www.w3.org/2000/svg"
 width="1000.000000pt" height="1000.000000pt" viewBox="0 0 1000.000000 1000.000000"
 preserveAspectRatio="xMidYMid meet">
<metadata>
Created by potrace 1.11, written by Peter Selinger 2001-2013
</metadata>
<g transform="translate(0.000000,1000.000000) scale(0.100000,-0.100000)"
fill="#000000" stroke="none">
<path d="M6130 8894 c-297 -63 -565 -293 -670 -575 -49 -132 -52 -171 -57
-611 l-5 -418 -601 0 -600 0 162 165 c91 93 168 179 176 199 20 48 18 123 -4
173 -45 99 -321 266 -526 319 -244 63 -534 36 -758 -71 -418 -198 -663 -600
-644 -1055 11 -261 108 -503 271 -678 67 -72 120 -102 181 -102 80 0 116 28
385 295 l255 254 37 -57 c136 -211 190 -439 168 -722 -12 -168 -30 -265 -70
-386 -31 -92 -57 -147 -188 -395 -137 -259 -175 -407 -176 -679 0 -147 3 -192
23 -280 101 -462 442 -828 929 -999 46 -16 85 -31 88 -33 2 -3 -6 -29 -19 -59
-76 -173 -66 -412 24 -578 16 -30 28 -55 26 -56 -1 -1 -37 -19 -80 -39 -154
-73 -302 -188 -410 -316 -156 -185 -239 -356 -287 -592 -19 -93 -20 -104 -5
-153 17 -62 72 -118 132 -135 27 -8 389 -10 1258 -8 l1220 3 42 30 c45 32 77
80 88 132 8 41 -17 175 -54 283 -108 322 -347 592 -661 750 l-79 40 39 82 c52
111 75 227 67 338 -7 88 -35 196 -68 262 -10 20 -15 39 -11 42 4 2 39 16 76
30 114 43 259 125 369 207 358 269 543 656 524 1099 -11 243 -52 387 -184 640
-161 307 -188 373 -223 538 -27 124 -37 362 -21 457 41 236 164 481 340 679
80 89 96 127 87 200 -7 66 -48 124 -106 154 -43 22 -50 22 -412 22 l-368 0 0
393 c0 431 2 447 61 557 59 112 190 219 304 249 22 5 75 14 118 20 93 11 141
39 177 104 57 100 14 230 -94 281 -42 20 -155 20 -246 0z m-2250 -1138 c36 -8
84 -23 108 -33 l42 -18 -475 -475 -474 -474 -21 47 c-31 69 -50 170 -50 265 0
322 216 599 532 682 89 23 245 26 338 6z m1641 -893 c43 -22 133 -22 176 0 26
14 63 17 203 17 93 0 170 -2 170 -4 0 -2 -25 -55 -55 -117 -68 -142 -116 -289
-145 -444 -49 -263 -2 -648 116 -934 20 -47 78 -165 129 -261 52 -96 106 -205
120 -243 28 -76 55 -215 55 -288 l0 -49 -1211 0 -1212 0 7 89 c13 174 30 219
227 601 102 197 144 323 185 546 26 143 27 543 1 664 -25 116 -69 246 -120
352 l-43 88 682 0 c624 0 684 -1 715 -17z m-222 -3732 c84 -67 121 -197 86
-302 -24 -70 -101 -149 -169 -172 -136 -47 -271 7 -341 134 -24 45 -29 66 -29
124 -1 87 24 145 85 203 l43 42 144 0 144 0 37 -29z m11 -912 c283 -35 552
-216 685 -460 l26 -49 -901 0 -900 0 26 53 c120 240 383 419 669 457 90 11
300 11 395 -1z"/>
</g>
</svg>
